<mxfile host="app.diagrams.net" modified="2020-10-19T06:08:08.174Z" agent="5.0 (Macintosh; Intel Mac OS X 10_15_7) AppleWebKit/605.1.15 (KHTML, like Gecko) Version/13.1.3 Safari/605.1.15" etag="wRGdHSqoOccrXbyKTFtp" version="13.8.0" type="github">
  <diagram id="2a3EcIJIJTY5Mc6Q1miD" name="Page-1">
    <mxGraphModel dx="1426" dy="819" grid="1" gridSize="10" guides="1" tooltips="1" connect="1" arrows="1" fold="1" page="0" pageScale="1" pageWidth="827" pageHeight="1169" math="0" shadow="0">
      <root>
        <mxCell id="0" />
        <mxCell id="1" parent="0" />
        <mxCell id="5DsvJZT1YWmxr_RgfhF9-2" value="" style="rounded=0;whiteSpace=wrap;html=1;" parent="1" vertex="1">
          <mxGeometry x="280" y="100" width="260" height="770" as="geometry" />
        </mxCell>
        <mxCell id="5DsvJZT1YWmxr_RgfhF9-3" value="Categories" style="rounded=0;whiteSpace=wrap;html=1;" parent="1" vertex="1">
          <mxGeometry x="290" y="110" width="240" height="60" as="geometry" />
        </mxCell>
        <mxCell id="5DsvJZT1YWmxr_RgfhF9-4" value="" style="rounded=0;whiteSpace=wrap;html=1;fillColor=#fff2cc;strokeColor=#d6b656;" parent="1" vertex="1">
          <mxGeometry x="292" y="180" width="236" height="680" as="geometry" />
        </mxCell>
        <mxCell id="5DsvJZT1YWmxr_RgfhF9-5" value="Combos" style="rounded=0;whiteSpace=wrap;html=1;" parent="1" vertex="1">
          <mxGeometry x="300" y="191" width="220" height="120" as="geometry" />
        </mxCell>
        <mxCell id="5DsvJZT1YWmxr_RgfhF9-6" value="Offers" style="rounded=0;whiteSpace=wrap;html=1;" parent="1" vertex="1">
          <mxGeometry x="300" y="320" width="220" height="140" as="geometry" />
        </mxCell>
        <mxCell id="5DsvJZT1YWmxr_RgfhF9-7" value="Advertisements" style="rounded=0;whiteSpace=wrap;html=1;" parent="1" vertex="1">
          <mxGeometry x="300" y="470" width="220" height="140" as="geometry" />
        </mxCell>
        <mxCell id="5DsvJZT1YWmxr_RgfhF9-8" value="Products" style="rounded=0;whiteSpace=wrap;html=1;" parent="1" vertex="1">
          <mxGeometry x="300" y="620" width="220" height="80" as="geometry" />
        </mxCell>
        <mxCell id="5DsvJZT1YWmxr_RgfhF9-9" value="Products" style="rounded=0;whiteSpace=wrap;html=1;" parent="1" vertex="1">
          <mxGeometry x="300" y="710" width="220" height="80" as="geometry" />
        </mxCell>
        <mxCell id="5DsvJZT1YWmxr_RgfhF9-10" value="Products" style="rounded=0;whiteSpace=wrap;html=1;" parent="1" vertex="1">
          <mxGeometry x="300" y="800" width="220" height="60" as="geometry" />
        </mxCell>
        <mxCell id="5DsvJZT1YWmxr_RgfhF9-11" value="" style="rounded=0;whiteSpace=wrap;html=1;fillColor=#f5f5f5;strokeColor=#666666;fontColor=#333333;" parent="1" vertex="1">
          <mxGeometry x="310" y="200" width="90" height="100" as="geometry" />
        </mxCell>
        <mxCell id="5DsvJZT1YWmxr_RgfhF9-12" value="" style="rounded=0;whiteSpace=wrap;html=1;fillColor=#f5f5f5;strokeColor=#666666;fontColor=#333333;" parent="1" vertex="1">
          <mxGeometry x="410" y="200" width="90" height="100" as="geometry" />
        </mxCell>
        <mxCell id="5DsvJZT1YWmxr_RgfhF9-13" value="" style="rounded=0;whiteSpace=wrap;html=1;fillColor=#f5f5f5;strokeColor=#666666;fontColor=#333333;" parent="1" vertex="1">
          <mxGeometry x="509" y="200" width="11" height="100" as="geometry" />
        </mxCell>
        <mxCell id="5DsvJZT1YWmxr_RgfhF9-14" value="" style="rounded=0;whiteSpace=wrap;html=1;" parent="1" vertex="1">
          <mxGeometry x="600" y="100" width="960" height="750" as="geometry" />
        </mxCell>
        <mxCell id="5DsvJZT1YWmxr_RgfhF9-16" value="Combos" style="shape=offPageConnector;whiteSpace=wrap;html=1;direction=north;" parent="1" vertex="1">
          <mxGeometry x="620" y="131" width="160" height="80" as="geometry" />
        </mxCell>
        <mxCell id="5DsvJZT1YWmxr_RgfhF9-17" value="Offers" style="shape=offPageConnector;whiteSpace=wrap;html=1;direction=north;" parent="1" vertex="1">
          <mxGeometry x="620" y="211" width="160" height="80" as="geometry" />
        </mxCell>
        <mxCell id="5DsvJZT1YWmxr_RgfhF9-18" value="Advertisements" style="shape=offPageConnector;whiteSpace=wrap;html=1;direction=north;" parent="1" vertex="1">
          <mxGeometry x="620" y="291" width="160" height="80" as="geometry" />
        </mxCell>
        <mxCell id="5DsvJZT1YWmxr_RgfhF9-19" value="Products" style="shape=offPageConnector;whiteSpace=wrap;html=1;direction=north;" parent="1" vertex="1">
          <mxGeometry x="620" y="371" width="160" height="80" as="geometry" />
        </mxCell>
        <mxCell id="5DsvJZT1YWmxr_RgfhF9-21" value="" style="rounded=0;whiteSpace=wrap;html=1;" parent="1" vertex="1">
          <mxGeometry x="730" y="130" width="790" height="401" as="geometry" />
        </mxCell>
        <mxCell id="5DsvJZT1YWmxr_RgfhF9-20" value="Dashboard For Mob" style="shape=offPageConnector;whiteSpace=wrap;html=1;direction=north;" parent="1" vertex="1">
          <mxGeometry x="620" y="451" width="160" height="80" as="geometry" />
        </mxCell>
        <mxCell id="5DsvJZT1YWmxr_RgfhF9-22" value="Advertisement" style="rounded=0;whiteSpace=wrap;html=1;" parent="1" vertex="1">
          <mxGeometry x="780" y="229" width="150" height="39" as="geometry" />
        </mxCell>
        <mxCell id="5DsvJZT1YWmxr_RgfhF9-23" value="Offers" style="rounded=0;whiteSpace=wrap;html=1;" parent="1" vertex="1">
          <mxGeometry x="780" y="190" width="150" height="39" as="geometry" />
        </mxCell>
        <mxCell id="5DsvJZT1YWmxr_RgfhF9-24" value="Products" style="rounded=0;whiteSpace=wrap;html=1;" parent="1" vertex="1">
          <mxGeometry x="780" y="268" width="150" height="39" as="geometry" />
        </mxCell>
        <mxCell id="5DsvJZT1YWmxr_RgfhF9-25" value="Combos" style="rounded=0;whiteSpace=wrap;html=1;" parent="1" vertex="1">
          <mxGeometry x="780" y="150" width="150" height="39" as="geometry" />
        </mxCell>
        <mxCell id="jHlz8R21vNLKww4-VYG9-2" value="" style="html=1;verticalLabelPosition=bottom;labelBackgroundColor=#ffffff;verticalAlign=top;shadow=0;dashed=0;strokeWidth=2;shape=mxgraph.ios7.misc.check;strokeColor=#0080f0;" parent="1" vertex="1">
          <mxGeometry x="910" y="164.5" width="12.5" height="10" as="geometry" />
        </mxCell>
        <mxCell id="jHlz8R21vNLKww4-VYG9-3" value="" style="html=1;verticalLabelPosition=bottom;labelBackgroundColor=#ffffff;verticalAlign=top;shadow=0;dashed=0;strokeWidth=2;shape=mxgraph.ios7.misc.check;strokeColor=#0080f0;" parent="1" vertex="1">
          <mxGeometry x="910" y="206.5" width="12.5" height="10" as="geometry" />
        </mxCell>
        <mxCell id="jHlz8R21vNLKww4-VYG9-4" value="" style="html=1;verticalLabelPosition=bottom;labelBackgroundColor=#ffffff;verticalAlign=top;shadow=0;dashed=0;strokeWidth=2;shape=mxgraph.ios7.misc.check;strokeColor=#0080f0;" parent="1" vertex="1">
          <mxGeometry x="910" y="285.5" width="12.5" height="10" as="geometry" />
        </mxCell>
        <mxCell id="xN7tsU4gp7AKUX31q0N8-1" value="Combos" style="rounded=0;whiteSpace=wrap;html=1;" vertex="1" parent="1">
          <mxGeometry x="780" y="307" width="150" height="39" as="geometry" />
        </mxCell>
      </root>
    </mxGraphModel>
  </diagram>
</mxfile>
